<svg width="560" height="560" viewBox="0 0 560 560" fill="none" xmlns="http://www.w3.org/2000/svg" role="img" aria-labelledby="adabet-hero-title">
  <title id="adabet-hero-title">AdaBet realtime trading infrastructure visual</title>
  <defs>
    <linearGradient id="panel" x1="107" y1="93" x2="473" y2="482" gradientUnits="userSpaceOnUse">
      <stop stop-color="#1C2A21"/>
      <stop offset="1" stop-color="#070B09"/>
    </linearGradient>
    <linearGradient id="edge" x1="92" y1="92" x2="478" y2="479" gradientUnits="userSpaceOnUse">
      <stop stop-color="#3DDBD9"/>
      <stop offset="0.55" stop-color="#00FF88"/>
      <stop offset="1" stop-color="#7C5CFF"/>
    </linearGradient>
    <linearGradient id="line" x1="129" y1="324" x2="436" y2="189" gradientUnits="userSpaceOnUse">
      <stop stop-color="#3DDBD9"/>
      <stop offset="0.45" stop-color="#00FF88"/>
      <stop offset="1" stop-color="#B6FF6A"/>
    </linearGradient>
    <filter id="soft-glow" x="-25%" y="-25%" width="150%" height="150%" color-interpolation-filters="sRGB">
      <feGaussianBlur stdDeviation="13" result="blur"/>
      <feColorMatrix in="blur" type="matrix" values="0 0 0 0 0 0 0 0 0 1 0 0 0 0 0.533 0 0 0 0.33 0"/>
      <feBlend in2="SourceGraphic" mode="screen"/>
    </filter>
  </defs>

  <circle cx="280" cy="280" r="214" fill="#00FF88" opacity="0.05"/>
  <circle cx="280" cy="280" r="176" stroke="#22372B" stroke-width="1.5" stroke-dasharray="7 10"/>
  <circle cx="280" cy="280" r="118" stroke="#1C2F25" stroke-width="1.5"/>

  <g filter="url(#soft-glow)">
    <path d="M280 48L481 164V396L280 512L79 396V164L280 48Z" fill="url(#panel)" stroke="url(#edge)" stroke-width="2.5"/>
    <path d="M280 86L448 183V377L280 474L112 377V183L280 86Z" fill="#0B120E" stroke="#24392D" stroke-width="1.5"/>
  </g>

  <path d="M139 331L196 290L238 313L296 245L347 263L421 187" stroke="url(#line)" stroke-width="7" stroke-linecap="round" stroke-linejoin="round"/>
  <path d="M139 331L196 290L238 313L296 245L347 263L421 187" stroke="#00FF88" stroke-width="18" stroke-linecap="round" stroke-linejoin="round" opacity="0.09"/>

  <g fill="#0E1B14" stroke="#284536" stroke-width="1.5">
    <rect x="137" y="365" width="286" height="54" rx="9"/>
    <rect x="137" y="142" width="286" height="54" rx="9"/>
  </g>
  <g font-family="SF Mono, Roboto Mono, ui-monospace, monospace" font-weight="800">
    <text x="159" y="175" fill="#7F9388" font-size="13">ORDER ROUTER</text>
    <text x="334" y="175" fill="#00FF88" font-size="15">12ms</text>
    <text x="159" y="398" fill="#7F9388" font-size="13">RISK GUARD</text>
    <text x="329" y="398" fill="#3DDBD9" font-size="15">LIVE</text>
  </g>

  <g>
    <rect x="159" y="223" width="34" height="90" rx="7" fill="#122018" stroke="#284536"/>
    <rect x="210" y="202" width="34" height="111" rx="7" fill="#122018" stroke="#284536"/>
    <rect x="261" y="247" width="34" height="66" rx="7" fill="#122018" stroke="#284536"/>
    <rect x="312" y="180" width="34" height="133" rx="7" fill="#122018" stroke="#284536"/>
    <rect x="363" y="216" width="34" height="97" rx="7" fill="#122018" stroke="#284536"/>
    <rect x="159" y="265" width="34" height="48" rx="7" fill="#3DDBD9" opacity="0.62"/>
    <rect x="210" y="235" width="34" height="78" rx="7" fill="#00FF88" opacity="0.74"/>
    <rect x="261" y="278" width="34" height="35" rx="7" fill="#B6FF6A" opacity="0.6"/>
    <rect x="312" y="213" width="34" height="100" rx="7" fill="#00FF88" opacity="0.82"/>
    <rect x="363" y="245" width="34" height="68" rx="7" fill="#3DDBD9" opacity="0.68"/>
  </g>

  <g fill="#00FF88">
    <circle cx="196" cy="290" r="7"/>
    <circle cx="296" cy="245" r="7"/>
    <circle cx="421" cy="187" r="7"/>
  </g>
  <g fill="#3DDBD9">
    <circle cx="112" cy="184" r="5"/>
    <circle cx="448" cy="377" r="5"/>
    <circle cx="280" cy="474" r="5"/>
  </g>
</svg>
